Coordinates
version=1
nRows=7
nColumns=63
inDegrees=yes

Units are S.I. units (second, meters, Newtons, ...)
If the header above contains a line with 'inDegrees', this indicates whether rotational values are in degrees (yes) or radians (no).

endheader
time	pelvis_tilt	pelvis_list	pelvis_rotation	pelvis_tx	pelvis_ty	pelvis_tz	hip_flexion_r	hip_adduction_r	hip_rotation_r	knee_angle_r	knee_angle_r_beta	ankle_angle_r	subtalar_angle_r	mtp_angle_r	hip_flexion_l	hip_adduction_l	hip_rotation_l	knee_angle_l	knee_angle_l_beta	ankle_angle_l	subtalar_angle_l	mtp_angle_l	L5_S1_Flex_Ext	L5_S1_Lat_Bending	L5_S1_axial_rotation	L4_L5_Flex_Ext	L4_L5_Lat_Bending	L4_L5_axial_rotation	L3_L4_Flex_Ext	L3_L4_Lat_Bending	L3_L4_axial_rotation	L2_L3_Flex_Ext	L2_L3_Lat_Bending	L2_L3_axial_rotation	L1_L2_Flex_Ext	L1_L2_Lat_Bending	L1_L2_axial_rotation	L1_T12_Flex_Ext	L1_T12_Lat_Bending	L1_T12_axial_rotation	Abs_r3	Abs_r2	Abs_r1	Abs_t1	Abs_t2	neck_flexion	neck_bending	neck_rotation	arm_flex_r	arm_add_r	arm_rot_r	elbow_flex_r	pro_sup_r	wrist_flex_r	wrist_dev_r	arm_flex_l	arm_add_l	arm_rot_l	elbow_flex_l	pro_sup_l	wrist_flex_l	wrist_dev_l
      3.16666667	      0.84045094	      1.03010454	    104.54364296	      0.01045704	      1.03165709	      0.65420112	     -2.98391016	      0.52364265	      0.61487823	      9.52853816	      0.16630436	     28.54555247	    -13.03061250	      0.00000000	     -2.29712130	      0.15101835	      8.19082461	      5.25498808	      0.09171684	     29.79807121	      2.47565881	      0.00000000	     -0.07446655	     -0.45517540	     -0.90902674	     -0.13829182	     -0.60538328	     -0.96584091	     -0.12234109	     -1.10671346	     -0.96584091	     -0.08510782	     -1.10671346	     -0.79539839	     -0.06914963	     -0.92819367	     -0.73858422	     -0.04255018	     -0.70506669	     -0.68177005	     -0.53190709	     -5.14903514	     -5.05573400	      0.00000000	      0.00000000	     10.82767739	     11.73862225	     -2.67759902	     30.49739448	     -1.34653265	     22.60593852	     67.96774298	     89.49391817	     -7.84877863	     20.99262866	     -5.94489978	    -22.46137483	     28.75474068	     52.55919861	     89.33945031	      3.18436739	     15.87386643
      3.18333333	      0.72460903	      0.93517194	    105.31416774	      0.00885939	      1.03210325	      0.65377857	     -3.09176016	      0.29914001	     -1.90127578	      9.48905565	      0.16561526	     29.07307182	    -10.57161298	      0.00000000	     -2.27098375	      0.41358022	     11.74062280	      5.22159189	      0.09113397	     28.98181678	     -1.27343439	      0.00000000	     -0.06954743	     -0.48487204	     -1.13336143	     -0.12915653	     -0.64487982	     -1.20419652	     -0.11425947	     -1.17891788	     -1.20419652	     -0.07948575	     -1.17891788	     -0.99169125	     -0.06458174	     -0.98875107	     -0.92085617	     -0.03973940	     -0.75106679	     -0.85002108	     -0.49677031	     -5.48496951	     -6.30341629	      0.00000000	      0.00000000	     11.27337724	     11.88891174	     -3.17235362	     28.58109789	     -1.43347330	     22.04769889	     70.18321970	     89.52405950	     -9.14356950	     24.02958173	     -6.84417158	    -22.44892624	     27.38754032	     53.28754600	     89.32961923	      3.00571286	     16.57199586
      3.20000000	      0.60087363	      0.74394339	    105.92299136	      0.00799236	      1.03266317	      0.65309263	     -3.05660096	      0.17727229	     -2.78330288	      9.51807782	      0.16612180	     29.00291905	    -10.34394153	      0.00000000	     -2.08932897	      0.56308628	     12.18741516	      5.31307366	      0.09273063	     28.90929510	     -1.05625721	      0.00000000	     -0.05618805	     -0.52575271	     -1.28756491	     -0.10434682	     -0.69925111	     -1.36803772	     -0.09231134	     -1.27831515	     -1.36803772	     -0.06421732	     -1.27831515	     -1.12661930	     -0.05217622	     -1.07211493	     -1.04614649	     -0.03210585	     -0.81439095	     -0.96567368	     -0.40134561	     -5.94741985	     -7.16104977	      0.00000000	      0.00000000	     11.77880332	     12.34462217	     -3.83910977	     26.14466892	     -1.25756152	     19.96031308	     74.43899403	     89.54617402	     -8.12565883	     27.03742790	     -7.52160685	    -22.64497674	     26.47134741	     54.05968374	     89.33587293	      2.92324454	     17.33770699
      3.21666667	      0.70586019	      0.50143902	    106.38029976	      0.00717117	      1.03310275	      0.65216301	     -2.92075752	      0.25589126	     -3.46192494	      9.49161559	      0.16565994	     28.84825689	    -10.12780495	      0.00000000	     -1.88531935	      0.49530781	     12.35902210	      5.23254172	      0.09132508	     28.82627867	     -0.76641409	      0.00000000	     -0.03151145	     -0.52715220	     -1.40788507	     -0.05851992	     -0.70111243	     -1.49587788	     -0.05177017	     -1.28171786	     -1.49587788	     -0.03601444	     -1.28171786	     -1.23189943	     -0.02926154	     -1.07496877	     -1.14390662	     -0.01800565	     -0.81655876	     -1.05591380	     -0.22508317	     -5.96325112	     -7.83023437	      0.00000000	      0.00000000	     12.54769723	     12.75051579	     -3.64506515	     23.93655960	     -1.16257157	     18.06365260	     79.66541231	     89.55749248	     -6.33257018	     28.66068125	     -8.18443592	    -22.54183917	     25.46495273	     54.62344866	     89.34582476	      2.58472367	     17.69149767
      3.23333333	      0.62893508	      0.23651225	    107.02596389	      0.00619949	      1.03339520	      0.65114197	     -2.83057000	      0.11573193	     -4.76818615	      9.49112051	      0.16565130	     29.03680246	     -9.23168397	      0.00000000	     -1.64768868	      0.59964903	     12.30402309	      5.26867565	      0.09195574	     28.89639436	      0.10678583	      0.00000000	     -0.01576282	     -0.55024305	     -1.50213346	     -0.02927314	     -0.73182326	     -1.59601680	     -0.02589674	     -1.33786095	     -1.59601680	     -0.01801533	     -1.33786095	     -1.31436677	     -0.01463736	     -1.12205563	     -1.22048343	     -0.00900688	     -0.85232649	     -1.12660009	     -0.11259227	     -6.22445944	     -8.35441565	      0.00000000	      0.00000000	     13.48786171	     12.79547932	     -4.11428648	     22.62222712	     -1.13357911	     15.60045972	     84.95924909	     89.57947951	      1.19837285	     31.84528150	     -8.51175276	    -22.71800251	     25.05736421	     55.35678915	     89.34779134	      2.56229220	     18.73952987
      3.25000000	      0.61536273	     -0.02431015	    107.35478952	      0.00551183	      1.03351484	      0.64984624	     -2.70331143	      0.02396103	     -5.58497679	      9.49056818	      0.16564166	     29.17873222	     -8.52328122	      0.00000000	     -1.50555549	      0.63336807	     11.80003800	      5.12973207	      0.08953071	     28.97241739	      1.20069421	      0.00000000	      0.00362775	     -0.54901728	     -1.52080803	      0.00673710	     -0.73019298	     -1.61585853	      0.00596003	     -1.33488061	     -1.61585853	      0.00414616	     -1.33488061	     -1.33070702	      0.00336873	     -1.11955603	     -1.23565652	      0.00207290	     -0.85042776	     -1.14060602	      0.02591266	     -6.21059323	     -8.45827801	      0.00000000	      0.00000000	     14.57046949	     12.58910540	     -3.85521977	     21.98038690	     -1.36928506	     14.07562072	     89.84248369	     89.56682861	      6.00612846	     32.85810976	     -8.74995614	    -22.72653960	     24.87980963	     55.80271082	     89.35211225	      2.16803388	     18.91999560
      3.26666667	      0.42657138	     -0.16607941	    107.58377531	      0.00481034	      1.03368964	      0.64831198	     -2.75037424	     -0.17446006	     -5.78194825	      9.50075870	      0.16581952	     29.22940670	     -8.62019785	      0.00000000	     -1.56723336	      0.84911233	     11.73647317	      4.98916571	      0.08707737	     28.78470531	      1.38542365	      0.00000000	      0.00688644	     -0.55473447	     -1.52755563	      0.01278880	     -0.73779684	     -1.62302786	      0.01131373	     -1.34878138	     -1.62302786	      0.00787051	     -1.34878138	     -1.33661118	      0.00639474	     -1.13121452	     -1.24113895	      0.00393491	     -0.85928369	     -1.14566672	      0.04918912	     -6.27526722	     -8.49580616	      0.00000000	      0.00000000	     15.18840564	     12.22941747	     -3.17343734	     21.96211939	     -1.97634559	     13.64697019	     94.25407644	     89.49449033	      6.62408284	     32.58529986	     -9.08722237	    -22.73445237	     24.59217501	     56.28567037	     89.35000162	      2.00917227	     18.80419509
